<?xml version="1.0" encoding="UTF-8"?>
<svg id="Layer_1" data-name="Layer 1" xmlns="http://www.w3.org/2000/svg" viewBox="0 0 1440 384.230769230769511">
  <defs>
    <style>
      .cls-1, .cls-2 {
        stroke-width: 0px;
      }

      .cls-2 {
        fill: #fff;
      }
    </style>
  </defs>
  <rect class="cls-1" y=".000000000000909" width="1440" height="1439.999999999999091"/>
  <g>
    <polygon class="cls-2" points="354.458294894800019 195.636547263708053 295.64712146283 106.275371229533448 274.164835164834585 106.275371229533448 274.164835164834585 233.054261999696791 295.64712146283 233.054261999696791 295.64712146283 143.692477557288839 354.458294894800019 233.054261999696791 375.939972784562087 233.054261999696791 375.939972784562087 106.275371229533448 354.458294894800019 106.275371229533448 354.458294894800019 195.636547263708053"/>
    <path class="cls-2" d="m464.947055227146848,141.755914151740399c-7.102557711710688-4.283802368353463-15.437142095189301-6.427224573112653-25.003753150434932-6.427224573112653-9.332373885552443,0-17.550143888300227,2.113001793110925-24.65148478354422,6.339005379331866-7.10194930347825,4.226003586220941-12.648807163480342,10.095926217931265-16.6393567635414,17.607942670431839-3.992374824760191,7.513841677199707-5.986737012441154,16.259101617933993-5.986737012441154,26.236388230435296,0,9.802673449639769,1.950556794907243,18.474924402416946,5.854712425885737,26.016144450100001,3.902330406280271,7.542436864149749,9.404774465276205,13.456773296867141,16.507332176986893,17.740575665219694,7.101340895244903,4.283193960121025,15.407330091773474,6.426616164879306,24.915533956654144,6.426616164879306,9.508812273114017,0,17.813584653176804-2.128211998934603,24.915533956654144-6.382810772104676,7.101340895244903-4.254598773170983,12.634205365889102-10.153725000063787,16.596159779000118-17.696161864213536,3.961954413111016-7.541220047683055,5.942323211434086-16.243891412109406,5.942323211434086-26.104363643880788,0-9.801456633172165-1.966983817197615-18.473099177716904-5.898517818660366-26.016144450099091-3.932750817928536-7.541220047683964-9.450405082748148-13.454948072168008-16.55174597799305-17.739967256987256Zm-6.162566991769381,65.590666371972475c-4.10918920549102,5.634468645550442-10.389178986223669,8.451398764209443-18.84118615866555,8.451398764209443-8.158754404149477,0-14.336531601743445-2.742704314236107-18.532723184549468-8.231763392106586-4.196799991037551-5.487233853171347-6.294591578323889-12.838630532167372-6.294591578323889-22.054190036988985,0-5.986737012440244.880366713109652-11.254335493508734,2.641100139329865-15.803403851437906,1.760733426219304-4.547851541462478,4.474842553506278-8.099738805551169,8.144152606558237-10.652619751100247,3.666876420119479-2.553489353781515,8.348577772836506-3.829929826556508,14.042062016985255-3.829929826556508,8.333975975245266,0,14.584762160795435,2.74452953893524,18.752966964884763,8.231763392106586,4.166987987622633,5.48905907786957,6.250786185550169,12.840455756866504,6.250786185550169,22.054190036988075,0,8.922306736529208-2.055203010978403,16.199477611103248-6.162566991769381,21.834554664886127Z"/>
    <path class="cls-2" d="m568.307096293765426,186.832880132608807c0,5.752499842746147-.646737951648902,10.507210183420284-1.937171813781788,14.26230579732055-1.291650678598671,3.756920838600308-3.008578712044255,6.706483952046256-5.150175692104312,8.848080932106313-2.14342220475919,2.14342220475919-4.534466560337933,3.654099847228281-7.175566699667797,4.534466560337933s-5.312620690307995,1.320245865548713-8.011519611770382,1.320245865548713c-5.04857151719898,0-9.054939731317063-1.085400287621269-12.017887825888465-3.257417679330501-2.964164911038097-2.170800575242538-5.194589493112289-4.94392530112782-6.691273746221668-8.319982585887374-1.496684253110288-3.374232060060422-2.451276770642835-6.895698912499938-2.861343919666069-10.564400557319459-.411283965489019-3.667484828352826-.616317540000637-6.969316308689486-.616317540000637-9.90488603277754v-45.781502714649832h-21.481677889762068v53.089094000872137c0,2.288831772439153.18982336868703,5.268815297534275.571903738993569,8.935691717653754.381471962073192,3.669310053051959,1.217424874175776,7.558255478206775,2.509683961007795,11.665619458998663,1.289825453899539,4.109189205490111,3.286012866279634,7.982924424820339,5.986737012441154,11.621814066224033,2.698898921461478,3.639498049636131,6.339005379330956,6.632866555856708,10.916668924209262,8.980105518660821,4.578271953111653,2.346630554571675,10.389178986223669,3.521466852440426,17.432112691103612,3.521466852440426,8.921089920063423,0,16.433714780796436-1.952382019606375,22.538482990434204-5.854712425886646,3.279320375717361-2.096726872878207,6.116327966064091-4.591961138353327,8.540226366222669-7.459617293436168v10.585010386212161h18.752966964884763v-95.084472281739181h-21.30584791043384v48.863090414651197Z"/>
    <path class="cls-2" d="m676.859293220563814,144.793468305880197c-1.131867466414405-1.02980698533338-2.309821856476447-2.009800546592487-3.565880653446584-2.90552956758529-6.133971804820249-4.37202156213425-13.720214061742809-6.559249159667161-22.758118362537061-6.559249159667161-8.980713926894168,0-16.787199964152933,2.18722759753291-23.419458111776294,6.559249159667161-6.632866555857618,4.373238378600036-11.753230244546103,10.330771795858709-15.362916290767316,17.871991843541764-3.609686046220304,7.543045272382187-5.414224865214237,16.127077031379486-5.414224865214237,25.752095276990076,0,9.508812273114017,1.789328613169346,18.048430231104248,5.370419472440517,25.620070690435568,3.579265634572039,7.57164045933223,8.627837151771018,13.558377471773383,15.142672510431112,17.960211037322551,6.515443766892531,4.402441973783425,14.144274600123936,6.603054552440881,22.890751357324007,6.603054552440881,9.273358286954135,0,17.050032320797982-2.200612578657456,23.331238917996416-6.603054552440881.393640126732862-.275913133652466.762943924146384-.576923106915274,1.144415886219576-.865460711402193v9.053418710735059c.11681438073083,4.518647946279998-.778762538203409,8.289562174238199-2.685513940336932,11.313351092107041-1.907968218598398,3.02196369316971-4.592873750701983,5.31140387384221-8.055325004544102,6.867103725550805-3.464276478540341,1.554483035242811-7.395810480003092,2.33324557344622-11.79764404555317,2.33324557344622-3.756920838599399,0-7.293597896863503-.836561320335932-10.608814358325617-2.509075552775357-3.317041686162156-1.673122640671863-5.885132837534911-4.241213792044618-7.703665045887647-7.703665045886737l-19.545114484213627,9.684033844209807c2.46466175176829,4.343426375184208,5.634468645550442,8.055933412777449,9.50820386488158,11.137521112778813,3.873735219330229,3.081587700001364,8.231763392105677,5.443428460396717,13.074084518327254,7.0873475058861,4.842321126220668,1.642702229023598,9.90488603277754,2.465270160001637,15.18708631143727,2.465270160001637,7.16035649384321,0,13.690402058327891-.968585906891349,19.588919876988257-2.905757720673137,5.899126226892804-1.936563405548441,10.843051528019714-4.886126518994388,14.835426352779905-8.848080932106313,3.990549600061058-3.961954413111016,6.69066533798923-9.023910911435451,8.099738805551169-15.18708631143727.469082747621542-2.113001793110925.806140908687667-4.26980897899557,1.012391299665069-6.471029965886373.205033574511617-2.200612578658365.307854565883645-4.505262965155453.307854565883645-6.910909118325435v-99.662744234849924h-18.576528577323188v6.823678587922586Zm-10.080716012106677,67.967337083047823c-3.492871665490384,2.612504952379822-8.085745416193276,3.917540612103949-13.778621252108678,3.917540612103949-5.517654264819612,0-10.066722622748784-1.378044647681236-13.645988257320823-4.137784392440153-3.581090859271171-2.757914520060694-6.237401204424714-6.499625152835506-7.967714218996662-11.225131898326254-1.732138239270171-4.723681520791615-2.597294746555235-9.992496818326799-2.597294746555235-15.803403851438816,0-5.751283026280362.880366713109652-10.989677912166371,2.641100139329865-15.715184657657119,1.760733426219304-4.724289929024053,4.490052759329956-8.480602359391014,8.187957999331957-11.269545699333321,3.697905240001091-2.786509707009827,8.392991573843574-4.181589785213873,14.086475817992323-4.181589785213873,5.399623067622997,0,9.801456633173075,1.306860884423259,13.206109104881762,3.917540612103949,3.403435655243811,2.612504952380732,5.912511208018259,6.250786185551078,7.527835066558509,10.917277332443518,1.613498633840209,4.665882738659093,2.42085635899366,10.111136423754942,2.42085635899366,16.331502197656846,0,6.163175400002729-.807357725153452,11.592610471041553-2.42085635899366,16.287696804884035-1.615323858540251,4.696303150308268-4.168204804089328,8.350402997535639-7.659859653113017,10.961082725217238Z"/>
    <path class="cls-2" d="m801.612792983163672,159.363856822172238c-1.291650678598671-4.107363980790979-3.287838090978767-7.981099200122117-5.986737012441154-11.621205657990686-2.700115737927263-3.638889641403694-6.339005379330047-6.63225814762427-10.917277332442609-8.98010551866173-4.578271953110743-2.347238962804113-10.388570577990322-3.522075260672864-17.432112691103612-3.522075260672864-8.922306736527389,0-16.434931597261311,1.952382019606375-22.538482990434204,5.854712425886646-3.279168273656978,2.097107128023708-6.116023761946053,4.592265342469545-8.539617957989321,7.459389140348321v-42.279200721548477h-18.928796944212991v126.778890770163343h21.481677889762977v-48.862482006417849c0-5.810907033112017.645521135182207-10.579002354910699,1.937171813780878-14.306719598328527,1.290433862133796-3.727108835183572,3.006753487346941-6.660853334573403,5.150175692104312-8.804275539331684,2.142205388294315-2.142205388293405,4.533858152104585-3.653491438994934,7.175566699668707-4.534466560337933,2.641100139329865-.880366713109652,5.31140387384221-1.320245865548713,8.011519611769472-1.320245865548713,5.047354700733194,0,9.053114506617931,1.086617104087964,12.017887825888465,3.257417679330501,2.962948094573221,2.172017391708323,5.193981084879852,4.945750525826043,6.69066533799014,8.319982585886464,1.496684253110288,3.375448876527116,2.45005995417705,6.882313931375393,2.86134391966516,10.520595164545739.410067149023234,3.640106457869479.616317539999727,6.955322919331593.616317539999727,9.94869142555217v45.781502714649832h21.482286297996325v-53.08848559263879c0-2.2894401806725-.191040185152815-5.267598481068489-.572512147226007-8.93630012588801-.382080370307449-3.667484828352826-1.218641690642471-7.556430253507642-2.509075552776267-11.665619458997753Z"/>
    <path class="cls-2" d="m852.762889945555798,111.557571508193178h-21.130017931105613v26.412218209764433h-17.255674303542037v16.639965171774747h17.255674303542037v39.618327314646194c0,5.400839884089692.05840719036496,10.243161010310359.176438387561575,14.526963378663822.116814380731739,4.285019184819248,1.261838675183753,8.481819175857709,3.433856066892986,12.589791564882034,2.465270160000728,4.52047317097913,6.074347797988594,7.821696243083352,10.828449730428474,9.90488603277845,4.75410193243988,2.08258138146175,10.13851479423829,3.197793672498847,16.155672218328618,3.345028464877942,6.015940607623634.14601797591331,12.163297393568428-.366870164481952,18.444503990767771-1.540489645884008v-17.784381057994324c-5.928329822076194.880366713109652-11.210530100735923,1.115820699270444-15.846600835979189.704536733781424-4.63728755170996-.410067149023234-8.012736428236167-2.37705096621994-10.125129813113745-5.899126226892804-1.115820699269534-1.818532208352735-1.716928033445583-4.166379579390195-1.804538818993024-7.042933704879943-.088827602014135-2.875337309023962-.132632994787855-6.220974182135251-.132632994787855-10.036910619332957v-38.38569223464583h27.908902462873812v-16.639965171774747h-27.908902462873812v-26.412218209764433Z"/>
    <polygon class="cls-2" points="913.247186018197681 106.275371229533448 900.305126086424934 106.275371229533448 900.305126086424934 233.054261999696791 973.466216101263853 233.054261999696791 973.466216101263853 220.640300414142985 913.247186018197681 220.640300414142985 913.247186018197681 106.275371229533448"/>
    <path class="cls-2" d="m1057.897460223668531,154.345705716622433c-2.523677350365688-6.163175400002729-6.822689924543738-10.873471939668889-12.898254538999026-14.13088961899939-6.074347797988594-3.257417679329592-13.456773296866231-4.886126518995297-22.142409230769772-4.886126518995297-10.507210183419375,0-19.046828141408696,2.348455779270807-25.620070690434659,7.04354211311329-6.573242549025963,4.696303150307358-10.946480927625089,11.299357702749148-13.117281502869446,19.809163657322642l12.589183156649597,3.697296831768654c1.819140616586083-6.338396971098518,4.974345712776994-10.974467706341784,9.464398472106041-13.910037430429838,4.490052759330865-2.934352907622269,9.992496818327709-4.402441973783425,16.508548993453587-4.402441973783425,9.448579858049925,0,16.080229597439029,2.26023658549002,19.897382851104339,6.779492940003365,3.513861749526768,4.163945946457716,5.312696741337277,10.419827550959781,5.440158266144863,18.715397756498533-3.094592425981318.432197998497031-6.458633648140676.86987167109146-10.150454805811023,1.314009681160314-5.605873458600399.675333138598944-11.328561297932538,1.467480657927808-17.168063517994597,2.37705096621994-5.841935852993629.910787124758826-11.167941524427079,1.951773611373028-15.979233830767043,3.125393092775994-4.755318748906575,1.232635080000364-8.936300125886191,3.023788917868842-12.546594580340752,5.370419472440517-3.609077637987866,2.348455779269898-6.457644984760918,5.357034491315062-8.539617957989321,9.023910911434541-2.084406606161792,3.669310053051959-3.126001501008432,8.086353824426624-3.126001501008432,13.250522905889738,0,5.04857151719807,1.202214668352099,9.714454255858072,3.610294454452742,13.998256624211535,2.405646153170892,4.285627593051686,6.030542405214874,7.718875251710415,10.872255123204013,10.300959792441972,4.842929534454015,2.582084540731557,10.843051528019714,3.873735219330229,18.005233246562057,3.873735219330229,9.50820386488158,0,17.665741452565271-2.143422204758281,24.475046395982645-6.426616164879306,4.798743886534794-3.019454009208857,8.688830077126113-7.02300833524896,11.709424851771473-11.967846248726346v15.753362274276697h11.532986464211717v-59.075222605079944c0-3.522075260672864-.175221571096699-6.984526514514073-.528098346219849-10.389178986223669-.351659958658274-3.403435655242902-1.115820699269534-6.485023355244266-2.288831772439153-9.244154691770746Zm-11.268937291100883,45.165185174649196c-.822567930978039,4.75410193243988-2.612504952379822,9.023910911435451-5.371027880673864,12.809426936984892-2.759739744758917,3.786124433781879-6.398020977929264,6.765499550644563-10.917277332442609,8.936300125887101-4.519256354513345,2.172017391708323-9.802673449639769,3.257417679329592-15.846600835979189,3.257417679329592-5.10697870756303,0-9.200349298997025-.849946301461387-12.282545407231737-2.552880945549077-3.080979291768017-1.701717827620996-5.312620690307085-3.843314807681054-6.690056929755883-6.427224573111744-1.379869872378549-2.582084540731557-2.069804808568733-5.251779867011464-2.069804808568733-8.011519611770382,0-3.403435655243811.806749316920104-6.250786185551078,2.421464767227008-8.540226366222669,1.613498633840209-2.288831772439153,3.682086625944066-4.122574186616475,6.206980792776449-5.502444058995934,2.522460533900812-1.378044647680326,5.134965486280635-2.45005995417614,7.835081224207897-3.213612286555872,3.991158008295315-1.056196692438789,8.466608970033121-1.96576700073183,13.426352885218876-2.729319333110652,4.959743915183935-.761727107680599,10.00709861591713-1.437060246279543,15.14328091866264-2.024782599330138,3.27300814030059-.373486604014943,6.380757394319517-.747657667292515,9.356558112813218-1.121980832628651-.014906001706549,1.423903418241025-.037645259415513,3.098851283612021-.068598028266933,5.040129852965947-.058407190366779,3.668701644819521-.439270744205714,7.029548723754488-1.143807477987139,10.080716012107587Z"/>
    <path class="cls-2" d="m1160.860819122390239,159.891955168392087c-3.315824869696371-7.571032051098882-8.085745416194186-13.558377471773383-14.30611119009518-17.960211037322551-6.221582590367689-4.401833565550078-13.677017077203345-6.60305455244179-22.362653011105067-6.60305455244179-8.92169832829677,0-16.434323189030692,2.172017391709232-22.537874582201766,6.514835358661003-2.927128059855022,2.082809534548687-5.503584824433347,4.543212428686275-7.748687255127152,7.36059885351915v-42.92875256127445h-13.029670717320187v126.778890770163343h11.621814066224033v-13.272045347131098c2.510368420269515,3.610218403424369,5.492861629325489,6.710666758648586,8.98010551866173,9.266285541245452,6.043927386339419,4.431037160732558,13.439737866343421,6.646859945214601,22.186214623543492,6.646859945214601,8.862074321465116,0,16.433106372563998-2.215822784482043,22.714312969763341-6.646859945214601,6.279989780732649-4.431037160732558,11.093715720004184-10.432984378997389,14.438744184881216-18.004624838329619,3.346245281343727-7.57164045933223,5.018151105550714-16.111258417321551,5.018151105550714-25.620070690435568,0-9.449188266282363-1.658520843080623-17.960211037322551-4.974345712775175-25.531851496653871Zm-12.061084810429747,45.033160588093779c-2.201220986891713,5.781703437929536-5.502444058996844,10.344765185216602-9.90488603277845,13.690402058327891-4.402441973783425,3.345636873110379-9.91948783036969,5.018151105549805-16.551137569760613,5.018151105549805-6.750897753052413,0-12.326350800005457-1.642093820790251-16.727575957322188-4.929931911769017-4.402441973781606-3.286621274512981-7.690280064760373-7.820479426617567-9.86108064000473-13.602791272779541-2.172017391709232-5.779878213230404-3.257417679329592-12.339127372897565-3.257417679329592-19.677139070769044,0-7.453000853902267,1.085400287620359-14.042062016985255,3.257417679329592-19.764749856316485,2.170800575244357-5.722687839331229,5.442820052165189-10.197530392837507,9.816058430764315-13.426352885217966,4.37202156213425-3.227605675913765,9.874465621129275-4.842321126220668,16.508548993451768-4.842321126220668,6.808088126952498,0,12.427346566679262,1.672514232438516,16.858992135645167,5.018151105549805,4.431645568964086,3.345636873111289,7.732868641069217,7.894705231039552,9.90488603277845,13.646596665554171,2.170800575242538,5.753108250979494,3.257417679329592,12.20892801104128,3.257417679329592,19.368676096651143,0,7.219372092441517-1.100002085211599,13.720822469976156-3.301223072103312,19.501309091439907Z"/>
  </g>
</svg>